<svg width="33" height="32" viewBox="0 0 33 32" fill="none" xmlns="http://www.w3.org/2000/svg">
<path d="M12.704 7.21075C14.3934 4.18141 15.2374 2.66675 16.5 2.66675C17.7627 2.66675 18.6067 4.18141 20.296 7.21075L20.7334 7.99475C21.2134 8.85608 21.4534 9.28675 21.8267 9.57075C22.2 9.85475 22.6667 9.96008 23.6 10.1707L24.448 10.3627C27.728 11.1054 29.3667 11.4761 29.7574 12.7307C30.1467 13.9841 29.0294 15.2921 26.7934 17.9067L26.2147 18.5827C25.58 19.3254 25.2614 19.6974 25.1187 20.1561C24.976 20.6161 25.024 21.1121 25.12 22.1027L25.208 23.0054C25.5454 26.4947 25.7147 28.2387 24.6934 29.0134C23.672 29.7881 22.136 29.0814 19.0667 27.6681L18.2707 27.3027C17.3987 26.9001 16.9627 26.7001 16.5 26.7001C16.0374 26.7001 15.6014 26.9001 14.7294 27.3027L13.9347 27.6681C10.864 29.0814 9.32803 29.7881 8.30803 29.0147C7.28536 28.2387 7.4547 26.4947 7.79203 23.0054L7.88003 22.1041C7.97603 21.1121 8.02403 20.6161 7.88003 20.1574C7.7387 19.6974 7.42003 19.3254 6.78536 18.5841L6.2067 17.9067C3.9707 15.2934 2.85336 13.9854 3.2427 12.7307C3.63203 11.4761 5.27336 11.1041 8.55336 10.3627L9.40136 10.1707C10.3334 9.96008 10.7987 9.85475 11.1734 9.57075C11.548 9.28675 11.7867 8.85608 12.2667 7.99475L12.704 7.21075Z" stroke="#0E0F0F"/>
</svg>
